# xmcd
#
# Track frame offsets:
# 150
# 13109
# 23609
# 36927
# 51581
# 66703
# 79596
# 89648
# 102055
# 114928
# 128143
# 141025
# 151145
# 164050
# 178687
# 193409
# 207477
# 221497
#
# Disc length: 3131 seconds
#
#
# Revision: 0
# Processed by: cddbd v1.5.2PL0 Copyright (c) Steve Scherf et al.
# Submitted via: FreeRIP 2.945 
#
DISCID=090c3912
DTITLE=Floyd Jones - The Chronological Floyd Jones
DYEAR=2005
DGENRE=Blues
TTITLE0=Stockyard Blues
TTITLE1=Keep What You Got
TTITLE2=Big World
TTITLE3=Dark Road
TTITLE4=Dark Road
TTITLE5=Big World
TTITLE6=Overseas
TTITLE7=Playhouse
TTITLE8=You Can't Live Long
TTITLE9=Early Morning
TTITLE10=I lost a Good Woman
TTITLE11=Skinny Mama
TTITLE12=Rising Wind
TTITLE13=On the Road Again
TTITLE14=Schooldays On My Mind
TTITLE15=Ain't Times Hard
TTITLE16=Floyd's Blues
TTITLE17=Any Old Lonesome Day
EXTD=
EXTT0=
EXTT1=
EXTT2=
EXTT3=
EXTT4=
EXTT5=
EXTT6=
EXTT7=
EXTT8=
EXTT9=
EXTT10=
EXTT11=
EXTT12=
EXTT13=
EXTT14=
EXTT15=
EXTT16=
EXTT17=
PLAYORDER=
